:SAMPLES-PER-SECOND 30
:FULLY-SPECIFIED
:DEGREES
16
root  -112.693 18.1234 1.01518 172.065 85.0595 173.369
RightUpLeg  -64.9693 -7.76588 -3.08957
RightLeg  135.307 0.105104 11.4112
RightFoot  -41.3141 0.174323 0.783044
RightToes  1.16414e-010 -1.59028e-015 9.93923e-017
Spine  42.5517 -1.25522 0.0233451
Spine1  -5.5184 -1.52251 0.682812
HEad  -43.8891 2.1946 5.35907
LeftShoulder1  9.93923e-017 0 1.22299e-017
LeftArm  -6.07984 -53.6308 -63.2545
LeftForeArm  -119.494 -49.4137 166.765
LeftHand  0.139871 4.21579 16.8216
RightShoulder  1.98785e-016 -4.96962e-017 1.55301e-017
RightArm  -32.2597 43.389 68.5695
RightForeArm  70.9156 40.0125 -166.934
RightHand  2.70323 9.32995 25.8359
LeftUpLeg  -74.298 3.31796 -3.21973
LeftLeg  135.008 -14.5316 -0.661033
LeftFoot  -31.1475 -0.657746 -3.63747
LeftToes  -6.63929e-010 -3.62392e-011 -1.02376e-010
17
root  -111.638 20.2148 0.856027 175.98 85.5631 179.06
RightUpLeg  -56.6152 -8.6979 0.316807
RightLeg  129.711 8.13029 4.41877
RightFoot  -37.3341 1.15912 5.44099
RightToes  1.16414e-010 -1.59028e-015 9.93923e-017
Spine  42.0856 -1.26941 0.404676
Spine1  -5.37557 -1.49391 1.17997
HEad  -38.5325 1.78211 5.52095
LeftShoulder1  9.93923e-017 0 1.22299e-017
LeftArm  -4.67924 -51.885 -63.8023
LeftForeArm  -120.843 -50.2162 166.208
LeftHand  0.214364 4.40223 16.0634
RightShoulder  1.98785e-016 -4.96962e-017 1.55301e-017
RightArm  -30.5211 41.1189 68.9854
RightForeArm  71.5109 40.9828 -166.012
RightHand  2.83326 9.98336 26.1262
LeftUpLeg  -64.6232 4.25232 -0.554848
LeftLeg  129.536 -12.7313 -2.64527
LeftFoot  -28.677 -0.697204 -4.48505
LeftToes  -6.63929e-010 -3.62392e-011 -1.02376e-010
18
root  -110.04 22.5165 0.673951 -165.03 85.1336 -164.793
RightUpLeg  -54.0118 -9.68363 3.82126
RightLeg  122.577 13.2718 -2.35391
RightFoot  -27.2848 1.11043 9.09249
RightToes  1.16414e-010 -1.59028e-015 9.93923e-017
Spine  36.2736 -2.13456 2.35678
Spine1  -4.39404 -1.76132 1.09413
HEad  -32.0162 1.87754 5.80994
LeftShoulder1  9.93923e-017 0 1.22299e-017
LeftArm  -1.96247 -50.2586 -65.3558
LeftForeArm  -120.972 -50.9513 165.596
LeftHand  0.258416 4.48244 15.2465
RightShoulder  1.98785e-016 -4.96962e-017 1.55301e-017
RightArm  -30.1965 38.8656 68.8615
RightForeArm  70.3421 41.1058 -165.809
RightHand  2.83417 9.68104 26.4197
LeftUpLeg  -59.0253 3.37608 3.25539
LeftLeg  123.039 -8.91105 -7.86185
LeftFoot  -26.1299 -0.570528 -5.06923
LeftToes  -6.63929e-010 -3.62392e-011 -1.02376e-010
19
root  -108.61 25.2943 0.592132 -150.392 84.9169 -150.231
RightUpLeg  -51.6893 -7.57455 5.45959
RightLeg  113.721 14.8665 -6.76377
RightFoot  -8.48244 -0.352704 10.047
RightToes  1.16414e-010 -1.59028e-015 9.93923e-017
Spine  34.7628 -2.70786 4.26255
Spine1  -3.8787 -1.85373 1.30408
HEad  -27.1878 2.02575 5.32251
LeftShoulder1  9.93923e-017 0 1.22299e-017
LeftArm  -1.11709 -48.5435 -65.6205
LeftForeArm  -121.188 -50.8929 165.664
LeftHand  0.221161 4.35838 15.3301
RightShoulder  1.98785e-016 -4.96962e-017 1.55301e-017
RightArm  -30.5148 37.6421 68.4118
RightForeArm  69.4752 40.879 -165.977
RightHand  2.87252 9.73112 26.6376
LeftUpLeg  -55.1019 2.06771 4.65285
LeftLeg  114.926 -11.4065 -5.27312
LeftFoot  -8.72704 0.230434 -7.66933
LeftToes  -6.63929e-010 -3.62392e-011 -1.02376e-010
20
root  -107.521 26.9573 0.688222 -176.335 85.7974 -174.831
RightUpLeg  -52.1262 -6.69991 2.52278
RightLeg  110.614 14.3491 -6.92731
RightFoot  4.57116 -1.2336 7.87613
RightToes  1.16414e-010 -1.59028e-015 9.93923e-017
Spine  37.6135 -1.64157 0.119501
Spine1  -5.72372 -1.79459 0.943715
HEad  -24.7998 1.75181 4.16781
LeftShoulder1  9.93923e-017 0 1.22299e-017
LeftArm  -2.91771 -46.7172 -64.4309
LeftForeArm  -122.596 -50.4296 166.155
LeftHand  0.194409 4.28807 15.5955
RightShoulder  1.98785e-016 -4.96962e-017 1.55301e-017
RightArm  -30.0402 37.405 68.1893
RightForeArm  70.4118 41.0095 -165.911
RightHand  2.93785 10.4983 26.3568
LeftUpLeg  -53.5063 0.551883 2.71802
LeftLeg  110.311 -12.33 -3.66173
LeftFoot  6.47823 1.07002 -5.98477
LeftToes  -6.63929e-010 -3.62392e-011 -1.02376e-010
21
root  -106.379 28.2969 0.702134 169.744 85.8277 171.107
RightUpLeg  -54.6433 -6.02275 1.61456
RightLeg  108.242 13.9222 -6.84203
RightFoot  5.51247 -0.947826 5.67649
RightToes  1.16414e-010 -1.59028e-015 9.93923e-017
Spine  39.5412 -1.16204 -1.67899
Spine1  -7.98399 -1.67542 0.926192
HEad  -23.8277 1.23417 3.69517
LeftShoulder1  9.93923e-017 0 1.22299e-017
LeftArm  -4.43564 -45.3397 -63.9033
LeftForeArm  -123.845 -50.2526 166.392
LeftHand  0.238416 4.40337 15.1464
RightShoulder  1.98785e-016 -4.96962e-017 1.55301e-017
RightArm  -29.13 37.1469 68.3439
RightForeArm  71.9766 41.3575 -165.666
RightHand  2.93808 11.1799 25.7443
LeftUpLeg  -54.8203 -1.23793 1.88068
LeftLeg  107.071 -12.9319 -2.09524
LeftFoot  9.8711 0.897172 -4.14394
LeftToes  -6.63929e-010 -3.62392e-011 -1.02376e-010
22
root  -105.263 29.4695 0.646832 168.608 86.0167 169.058
RightUpLeg  -58.0664 -5.63888 2.1784
RightLeg  104.937 13.0988 -5.80425
RightFoot  0.42937 -0.509096 4.38757
RightToes  1.16414e-010 -1.59028e-015 9.93923e-017
Spine  39.9081 -1.41008 -1.34809
Spine1  -8.02096 -1.5694 0.0436345
HEad  -23.866 1.13372 4.08754
LeftShoulder1  9.93923e-017 0 1.22299e-017
LeftArm  -4.20771 -45.0788 -64.7472
LeftForeArm  -123.549 -50.383 166.263
LeftHand  0.286353 4.51368 14.4672
RightShoulder  1.98785e-016 -4.96962e-017 1.55301e-017
RightArm  -28.898 36.7513 68.4466
RightForeArm  72.0021 41.5709 -165.449
RightHand  2.92179 10.887 25.8978
LeftUpLeg  -57.7151 -2.70996 1.7828
LeftLeg  103.386 -13.7207 0.815982
LeftFoot  5.48862 0.505216 -2.95649
LeftToes  -6.63929e-010 -3.62392e-011 -1.02376e-010
23
root  -104.299 30.2322 0.615092 163.696 86.3598 164.167
RightUpLeg  -60.9198 -5.25676 2.39847
RightLeg  101.013 11.6274 -1.78641
RightFoot  -2.2994 -0.545687 5.76387
RightToes  1.16414e-010 -1.59028e-015 9.93923e-017
Spine  40.7191 -1.69906 -0.998169
Spine1  -6.6639 -1.39644 -1.76615
HEad  -24.8943 1.66881 4.55542
LeftShoulder1  9.93923e-017 0 1.22299e-017
LeftArm  -3.40047 -45.5558 -65.9361
LeftForeArm  -122.815 -50.3626 166.227
LeftHand  0.27733 4.4798 14.4501
RightShoulder  1.98785e-016 -4.96962e-017 1.55301e-017
RightArm  -29.2544 36.4873 68.378
RightForeArm  71.0956 41.7022 -165.251
RightHand  2.94632 10.241 26.6525
LeftUpLeg  -60.1859 -3.4686 1.46808
LeftLeg  99.0177 -13.9082 2.75698
LeftFoot  1.42321 0.392826 -2.99738
LeftToes  -6.63929e-010 -3.62392e-011 -1.02376e-010
24
root  -103.365 30.517 0.599743 158.566 86.6317 159.303
RightUpLeg  -63.2223 -5.17315 2.72152
RightLeg  96.8162 10.6463 2.94765
RightFoot  -3.65757 -0.555192 6.69423
RightToes  1.16414e-010 -1.59028e-015 9.93923e-017
Spine  42.6424 -1.75959 -1.06164
Spine1  -6.36172 -1.17136 -2.74466
HEad  -26.1155 2.30314 4.52724
LeftShoulder1  9.93923e-017 0 1.22299e-017
LeftArm  -3.67218 -45.8757 -66.3428
LeftForeArm  -123.109 -50.1018 166.463
LeftHand  0.256107 4.44016 14.8644
RightShoulder  1.98785e-016 -4.96962e-017 1.55301e-017
RightArm  -29.1886 36.2316 68.5098
RightForeArm  70.3387 41.8577 -165.035
RightHand  3.01335 9.79764 27.5507
LeftUpLeg  -62.3043 -3.66242 1.06498
LeftLeg  94.7047 -13.4683 2.24968
LeftFoot  -1.04398 0.355677 -3.29265
LeftToes  -6.63929e-010 -3.62392e-011 -1.02376e-010
25
root  -102.401 30.4615 0.575335 159.95 86.8101 160.386
RightUpLeg  -65.4749 -5.66963 3.87896
RightLeg  92.2049 10.7017 4.1124
RightFoot  -6.82897 -0.351202 6.44684
RightToes  1.16414e-010 -1.59028e-015 9.93923e-017
Spine  45.1855 -1.60043 -1.19103
Spine1  -7.7519 -0.998757 -2.18196
HEad  -26.7238 2.39728 4.12811
LeftShoulder1  9.93923e-017 0 1.22299e-017
LeftArm  -4.94624 -45.8238 -65.9197
LeftForeArm  -123.63 -49.9699 166.608
LeftHand  0.258844 4.46671 15.0471
RightShoulder  1.98785e-016 -4.96962e-017 1.55301e-017
RightArm  -28.4282 35.7943 68.8965
RightForeArm  69.9549 41.8994 -164.964
RightHand  3.08164 9.59192 28.2462
LeftUpLeg  -64.5846 -3.64194 0.888892
LeftLeg  90.5663 -13.1152 1.86611
LeftFoot  -4.98564 0.234795 -3.4287
LeftToes  -6.63929e-010 -3.62392e-011 -1.02376e-010
26
root  -101.468 29.9462 0.551135 163.566 86.8216 164.166
RightUpLeg  -67.2481 -6.56475 5.12817
RightLeg  88.2102 10.9386 1.92358
RightFoot  -9.4774 -0.218385 6.87574
RightToes  1.16414e-010 -1.59028e-015 9.93923e-017
Spine  48.0939 -1.43377 -1.33018
Spine1  -9.17506 -0.868121 -1.35964
HEad  -27.4638 2.05632 3.68905
LeftShoulder1  9.93923e-017 0 1.22299e-017
LeftArm  -6.1975 -46.0151 -64.9588
LeftForeArm  -123.254 -50.0583 166.509
LeftHand  0.241589 4.41722 15.1793
RightShoulder  1.98785e-016 -4.96962e-017 1.55301e-017
RightArm  -27.7821 35.672 68.9752
RightForeArm  69.8798 41.8126 -165.049
RightHand  3.13126 9.49941 28.6977
LeftUpLeg  -66.6813 -3.46471 0.746317
LeftLeg  87.4171 -12.9273 3.3191
LeftFoot  -9.29856 0.137173 -4.61366
LeftToes  -6.63929e-010 -3.62392e-011 -1.02376e-010
27
root  -100.498 28.759 0.537664 165.302 86.6945 167.033
RightUpLeg  -68.3767 -7.27798 5.61138
RightLeg  87.2095 10.9343 0.396384
RightFoot  -9.17807 -0.217211 6.63548
RightToes  1.16414e-010 -1.59028e-015 9.93923e-017
Spine  50.5574 -1.33272 -1.58106
Spine1  -9.07153 -0.787611 -0.881661
HEad  -29.4224 1.95599 3.24983
LeftShoulder1  9.93923e-017 0 1.22299e-017
LeftArm  -7.21571 -46.7167 -63.5458
LeftForeArm  -122.882 -50.1234 166.429
LeftHand  0.181274 4.25028 15.6794
RightShoulder  1.98785e-016 -4.96962e-017 1.55301e-017
RightArm  -27.621 36.4401 68.6916
RightForeArm  70.4021 41.8285 -165.07
RightHand  3.23837 9.76656 29.1425
LeftUpLeg  -68.397 -3.05029 0.393991
LeftLeg  86.6184 -12.8561 4.53524
LeftFoot  -10.9693 0.10356 -6.28334
LeftToes  -6.63929e-010 -3.62392e-011 -1.02376e-010
28
root  -99.3569 26.9684 0.528106 169.9 86.6264 172.295
RightUpLeg  -70.1053 -7.33423 5.94422
RightLeg  90.7651 10.9189 1.02053
RightFoot  -9.55882 -0.105712 2.85918
RightToes  1.16414e-010 -1.59028e-015 9.93923e-017
Spine  51.2762 -1.16935 -1.72588
Spine1  -8.08506 -0.739461 -0.100187
HEad  -31.6373 2.19734 2.87293
LeftShoulder1  9.93923e-017 0 1.22299e-017
LeftArm  -7.80446 -47.1889 -62.4948
LeftForeArm  -123.657 -50.0901 166.512
LeftHand  0.138574 4.14591 16.1469
RightShoulder  1.98785e-016 -4.96962e-017 1.55301e-017
RightArm  -27.5874 37.2798 68.9539
RightForeArm  71.1427 41.9969 -164.946
RightHand  3.42239 10.3344 29.7548
LeftUpLeg  -70.64 -2.41097 -0.0133314
LeftLeg  88.8568 -13.0635 3.78062
LeftFoot  -11.6791 0.0611651 -6.20202
LeftToes  -6.63929e-010 -3.62392e-011 -1.02376e-010
